<?xml version="1.0" encoding="utf-8"?>
<!-- Generator: Adobe Illustrator 19.0.0, SVG Export Plug-In . SVG Version: 6.00 Build 0)  -->
<svg version="1.1" id="Layer_1" xmlns="http://www.w3.org/2000/svg" xmlns:xlink="http://www.w3.org/1999/xlink" x="0px" y="0px"
	 viewBox="414 147 1440 500" style="enable-background:new 414 147 1440 500;" xml:space="preserve">
<style type="text/css">
	.st0{fill:#E6E6E8;}
</style>
<path class="st0" d="M663.3,201l-5.8,10.9c-0.7,1.2-1.8,1.1-3,0.4l-4.2-2.2l3.1,16.7c0.7,3-1.5,3-2.5,1.7l-7.3-8.2l-1.2,4.2
	c-0.1,0.6-0.8,1.1-1.7,1l-9.3-2l2.5,8.9c0.5,2,0.9,2.8-0.5,3.3l-3.3,1.6l16,13c0.6,0.5,0.9,1.4,0.7,2.2l-1.4,4.6
	c5.5-0.6,10.5-1.6,16-2.2c0.5-0.1,1.3,0.8,1.3,1.3l-0.7,16.8h2.7l-0.4-16.8c0-0.6,0.7-1.4,1.2-1.3c5.5,0.6,10.5,1.6,16,2.2l-1.4-4.6
	c-0.2-0.8,0.1-1.7,0.7-2.2l16-13l-3.3-1.6c-1.5-0.5-1-1.3-0.5-3.3l2.5-8.9l-9.3,1.9c-0.9,0.1-1.5-0.4-1.6-1l-1.2-4.2l-7.4,8.2
	c-1.1,1.3-3.2,1.3-2.5-1.7l3.1-16.7l-4.2,2.2c-1.2,0.7-2.4,0.8-3-0.4"/>
<g>
	<path class="st0" d="M1576.8,204.6c-17.9,0-32.4,14.5-32.4,32.4s14.5,32.4,32.4,32.4c17.9,0,32.4-14.5,32.4-32.4
		S1594.7,204.6,1576.8,204.6z M1595.2,258.6c-0.5-0.6-1.4-0.7-2-0.2c-0.6,0.5-0.8,1.3-0.3,2c-1.3,0.9-2.6,1.6-4,2.3
		c-0.3-0.7-1.1-1-1.8-0.7c-0.7,0.3-1.1,1.1-0.8,1.8c-1.4,0.5-2.9,0.9-4.4,1.2c-0.1-0.8-0.8-1.3-1.6-1.2s-1.3,0.8-1.2,1.6
		c-0.8,0.1-1.5,0.1-2.3,0.1c-0.8,0-1.5,0-2.3-0.1c0.1-0.8-0.4-1.5-1.2-1.6c-0.8-0.1-1.5,0.4-1.6,1.2c-1.5-0.3-3-0.7-4.4-1.2
		c0.3-0.7-0.1-1.5-0.8-1.8c-0.7-0.3-1.5,0-1.9,0.7c-1.4-0.7-2.7-1.4-4-2.3c0.4-0.6,0.3-1.5-0.3-2c-0.6-0.5-1.5-0.4-2,0.2
		c-0.6-0.5-1.1-1-1.7-1.6c-0.5-0.5-1.1-1.1-1.6-1.7c0.6-0.5,0.7-1.3,0.2-2c-0.4-0.6-1.3-0.7-1.9-0.3c-0.9-1.3-1.7-2.6-2.3-4
		c0.7-0.3,1-1.1,0.7-1.9c-0.3-0.7-1.1-1.1-1.8-0.8c-0.5-1.4-0.9-2.9-1.2-4.4c0.8-0.1,1.3-0.8,1.2-1.6c-0.1-0.8-0.8-1.3-1.6-1.2
		c-0.1-0.8-0.1-1.5-0.1-2.3c0-0.8,0-1.5,0.1-2.3c0.8,0.1,1.4-0.4,1.6-1.2c0.1-0.8-0.4-1.5-1.2-1.6c0.3-1.5,0.7-3,1.2-4.4
		c0.7,0.3,1.5-0.1,1.8-0.8c0.3-0.7,0-1.5-0.7-1.8c0.7-1.4,1.4-2.7,2.3-4c0.6,0.4,1.5,0.3,1.9-0.3c0.5-0.6,0.4-1.5-0.2-1.9
		c0.5-0.6,1-1.2,1.6-1.7c0.5-0.5,1.1-1.1,1.7-1.6c0.5,0.6,1.3,0.7,2,0.2s0.7-1.3,0.3-2c1.3-0.9,2.6-1.6,4-2.3
		c0.3,0.7,1.1,1.1,1.9,0.8s1.1-1.1,0.8-1.8c1.4-0.5,2.9-0.9,4.4-1.2c0.1,0.8,0.8,1.3,1.6,1.2s1.3-0.8,1.2-1.6
		c0.8-0.1,1.5-0.1,2.3-0.1c0.8,0,1.5,0,2.3,0.1c-0.1,0.8,0.4,1.4,1.2,1.6s1.5-0.4,1.6-1.2c1.5,0.3,3,0.7,4.4,1.2
		c-0.3,0.7,0.1,1.5,0.8,1.8s1.5,0,1.8-0.8c1.4,0.7,2.7,1.4,4,2.3c-0.5,0.6-0.3,1.5,0.3,2c0.6,0.5,1.5,0.4,2-0.2
		c0.6,0.5,1.2,1,1.7,1.6c0.5,0.5,1,1.1,1.6,1.7c-0.6,0.5-0.7,1.4-0.2,2c0.5,0.6,1.3,0.8,2,0.3c0.9,1.3,1.6,2.6,2.3,4
		c-0.7,0.3-1,1.1-0.8,1.8c0.3,0.7,1.1,1.1,1.8,0.8c0.5,1.4,0.9,2.9,1.2,4.4c-0.8,0.1-1.3,0.8-1.2,1.6c0.1,0.8,0.8,1.3,1.6,1.2
		c0.1,0.8,0.1,1.5,0.1,2.3s0,1.5-0.1,2.3c-0.8-0.1-1.4,0.5-1.6,1.2s0.4,1.5,1.2,1.6c-0.3,1.5-0.7,3-1.2,4.4
		c-0.7-0.3-1.5,0.1-1.8,0.8c-0.3,0.7,0,1.5,0.8,1.9c-0.7,1.4-1.4,2.7-2.3,4c-0.6-0.4-1.5-0.3-2,0.3c-0.4,0.6-0.4,1.5,0.2,2
		c-0.5,0.6-1,1.2-1.6,1.7C1596.3,257.6,1595.8,258.1,1595.2,258.6z"/>
	<path class="st0" d="M1581,240.8c0.2-0.2,0.4-0.5,0.5-0.7l4.6,3.4l15.2,7.7l-14.3-9.3l-5.3-2.3c0.1-0.3,0.2-0.5,0.4-0.8l5.3,2.1
		l16.7,3.5l-16.2-5.3l-5.6-0.8c0.1-0.3,0.1-0.6,0.1-0.9l5.7,0.7l17-1l-17-1l-5.7,0.7c0-0.3-0.1-0.6-0.1-0.9l5.6-0.8l16.2-5.3
		l-16.7,3.5l-5.3,2.1c-0.1-0.3-0.2-0.6-0.4-0.8l5.3-2.3l14.3-9.4l-15.2,7.7l-4.6,3.4c-0.2-0.2-0.4-0.5-0.5-0.7l4.5-3.5l11.3-12.7
		l-12.7,11.3l-3.5,4.5c-0.2-0.2-0.5-0.4-0.7-0.5l3.4-4.6l7.7-15.2l-9.4,14.3l-2.3,5.3c-0.3-0.1-0.5-0.2-0.8-0.3l2.1-5.3l3.5-16.7
		l-5.3,16.2l-0.8,5.7c-0.3-0.1-0.6-0.1-0.9-0.1l0.7-5.7l-1-17l-1,17l0.7,5.7c-0.3,0-0.6,0-0.9,0.1l-0.8-5.6l-5.3-16.2l3.5,16.7
		l2.1,5.3c-0.3,0.1-0.6,0.2-0.8,0.4l-2.3-5.3l-9.3-14.3l7.7,15.2l3.4,4.6c-0.3,0.2-0.5,0.4-0.7,0.6l-3.5-4.5l-12.7-11.3l11.3,12.7
		l4.5,3.5c-0.2,0.2-0.4,0.5-0.6,0.7l-4.6-3.5l-15.2-7.6l14.3,9.3l5.3,2.3c-0.2,0.3-0.3,0.5-0.4,0.8l-5.3-2.1l-16.7-3.5l16.2,5.3
		l5.6,0.8c-0.1,0.3-0.1,0.6-0.1,0.9l-5.7-0.7l-17,1l17,1l5.7-0.7c0,0.3,0.1,0.6,0.1,0.9l-5.6,0.8l-16.2,5.3l16.7-3.5l5.3-2.1
		c0.1,0.3,0.2,0.6,0.4,0.8l-5.3,2.3l-14.3,9.3l15.2-7.7l4.6-3.4c0.2,0.3,0.4,0.5,0.5,0.7l-4.5,3.5l-11.3,12.7l12.7-11.3l3.5-4.5
		c0.2,0.2,0.5,0.4,0.7,0.6l-3.4,4.6l-7.7,15.2l9.4-14.3l2.3-5.3c0.3,0.1,0.5,0.3,0.8,0.4l-2.1,5.3l-3.4,16.7l5.3-16.2l0.8-5.7
		c0.3,0.1,0.6,0.1,0.9,0.1l-0.7,5.7l1,17l1-17l-0.7-5.7c0.3,0,0.6,0,0.9-0.1l0.8,5.6l5.3,16.2l-3.5-16.7l-2.1-5.3
		c0.3-0.1,0.6-0.2,0.8-0.3l2.3,5.3l9.3,14.3l-7.7-15.2l-3.4-4.6c0.3-0.2,0.5-0.3,0.7-0.5l3.5,4.5l12.7,11.3l-11.3-12.7L1581,240.8z"
		/>
</g>
<g transform="matrix( 1, 0, 0, 1, -25,0) ">
	<g>
		<g id="Layer0_5_MEMBER_2_FILL">
			<path class="st0" d="M1308.2,114.3h-54v245.4h54V114.3 M1551.1,183.6c0.1-18.7-2.9-33.2-9.2-43.8c-6.3-10.6-16.1-18.1-29.5-22.4
				c-13.3-4.4-30.6-6.5-51.9-6.4c-14.6,0-27.1,0.1-37.4,0.2c-10.4,0.2-20,0.6-28.6,1.1c-8.8,0.4-18,1.1-27.6,2v245.4h53.3v-96
				l38.2,0.3c7.2-0.1,12.8,1.3,16.9,4.3c4.1,3.2,7.2,8.6,9.4,16.4l18.6,75h57.2l-21.4-76.6c-2-8.3-4.9-15.1-8.8-20.2
				s-8.2-8.9-12.7-11.5c-4.6-2.6-9.1-4.4-13.3-5.3v-1.8c17.1-2.2,29.3-8.5,36.5-19.1C1547.8,214.9,1551.3,201,1551.1,183.6
				 M1459.4,152.7c14-0.3,23.8,2,29.2,7c5.5,5,8,14.2,7.8,27.5c0.3,13.3-2.3,22.5-7.8,27.6s-15.2,7.6-29.2,7.3h-39.3v-68.9
				L1459.4,152.7 M786.4,112.1c-15.5,0.5-30.2,1.3-44.1,2.2v245.4c13.9,0.9,28.6,1.7,44.3,2.3c15.5,0.7,32.5,1,50.9,1
				c25.6,0.3,46-3.4,61.4-11.1c15.4-7.6,26.5-20.6,33.3-39c6.7-18.4,10-43.7,9.9-75.8c0.1-32.2-3.2-57.5-9.9-75.9
				c-6.8-18.4-17.9-31.4-33.3-39c-15.3-7.6-35.8-11.3-61.4-11.1C818.9,111,801.9,111.4,786.4,112.1 M837.4,153.4
				c12.2-0.2,21.7,2.2,28.6,7.3c7,5.1,11.9,13.7,14.8,26c2.9,12.2,4.3,29,4.2,50.4c0.1,21.3-1.3,38.1-4.2,50.2
				C877.9,299.5,873,308,866,313c-6.9,5.1-16.5,7.5-28.6,7.3c-7.4,0-14.6-0.1-21.5-0.2c-6.8-0.1-13.4-0.2-19.6-0.2V153.7
				L837.4,153.4 M1054.7,114.3h-54v245.4h54V250.1h86.9v109.6h54V114.3h-54v93.8h-86.9V114.3z"/>
		</g>
	</g>
</g>
</svg>
